<?xml version="1.0" encoding="UTF-8" standalone="no"?>
<!-- Created with Inkscape (http://www.inkscape.org/) -->

<svg
   xmlns:dc="http://purl.org/dc/elements/1.1/"
   xmlns:cc="http://creativecommons.org/ns#"
   xmlns:rdf="http://www.w3.org/1999/02/22-rdf-syntax-ns#"
   xmlns:svg="http://www.w3.org/2000/svg"
   xmlns="http://www.w3.org/2000/svg"
   xmlns:sodipodi="http://sodipodi.sourceforge.net/DTD/sodipodi-0.dtd"
   xmlns:inkscape="http://www.inkscape.org/namespaces/inkscape"
   width="165.11905mm"
   height="165.11905mm"
   viewBox="0 0 165.11905 165.11905"
   version="1.1"
   id="svg8"
   inkscape:export-filename="/home/thibault/Programmation/agreg/public/favicon.png"
   inkscape:export-xdpi="78.760002"
   inkscape:export-ydpi="78.760002"
   inkscape:version="0.92.4 (5da689c313, 2019-01-14)"
   sodipodi:docname="icon.svg">
  <defs
     id="defs2" />
  <sodipodi:namedview
     id="base"
     pagecolor="#ffffff"
     bordercolor="#666666"
     borderopacity="1.0"
     inkscape:pageopacity="0.0"
     inkscape:pageshadow="2"
     inkscape:zoom="0.35"
     inkscape:cx="-351.13104"
     inkscape:cy="124.38703"
     inkscape:document-units="mm"
     inkscape:current-layer="layer1"
     showgrid="false"
     inkscape:window-width="1920"
     inkscape:window-height="1059"
     inkscape:window-x="0"
     inkscape:window-y="21"
     inkscape:window-maximized="0" />
  <metadata
     id="metadata5">
    <rdf:RDF>
      <cc:Work
         rdf:about="">
        <dc:format>image/svg+xml</dc:format>
        <dc:type
           rdf:resource="http://purl.org/dc/dcmitype/StillImage" />
        <dc:title></dc:title>
      </cc:Work>
    </rdf:RDF>
  </metadata>
  <g
     inkscape:label="Layer 1"
     inkscape:groupmode="layer"
     id="layer1"
     transform="translate(-72.114731,-16.625015)">
    <circle
       style="fill:#008080;fill-opacity:1;stroke:none;stroke-width:1.42293239;stroke-miterlimit:4;stroke-dasharray:none;stroke-opacity:1"
       id="path1027"
       cx="154.67426"
       cy="99.18454"
       r="82.559525" />
    <g
       id="g1001"
       transform="matrix(1.1232748,0,0,1.1232748,82.784668,19.355785)">
      <g
         id="g993">
        <path
           id="path971"
           d="m 23.125,112.122 h 81.75 v 14.131 h -81.75 z"
           inkscape:connector-curvature="0"
           style="fill:#596c76" />
        <path
           id="path973"
           d="m 104.875,112.122 h -34.25 v -12 A 17.125,17.125 0 0 1 87.75,83 a 17.125,17.125 0 0 1 17.125,17.125 z"
           inkscape:connector-curvature="0"
           style="fill:#3b4a51" />
        <path
           id="path975"
           d="m 80.625,112.122 v -12 a 7.125,7.125 0 0 1 14.25,0 v 12 z"
           inkscape:connector-curvature="0"
           style="fill:#52dddc" />
        <path
           id="path977"
           transform="matrix(0.707,-0.707,0.707,0.707,-7.685,55.128)"
           d="M 43.029,24.501 H 82.376 V 49.179 H 43.029 Z"
           inkscape:connector-curvature="0"
           style="fill:#e1ebf0" />
        <path
           id="path979"
           transform="matrix(0.707,-0.707,0.707,0.707,-4.856,56.3)"
           d="m 49.858,29.673 h 31.347 v 8.678 H 49.858 Z"
           inkscape:connector-curvature="0"
           style="fill:#b4d2d7" />
        <path
           id="path981"
           transform="matrix(0.707,-0.707,0.707,0.707,10.115,62.501)"
           d="m 75.003,0.084 h 11 v 37.912 h -11 z"
           inkscape:connector-curvature="0"
           style="fill:#7c84e8" />
        <path
           id="path983"
           transform="matrix(0.707,-0.707,0.707,0.707,-26.899,47.169)"
           d="m 39.988,50.43 h 11 v 11.25 h -11 a 4,4 0 0 1 -4,-4 v -3.25 a 4,4 0 0 1 4,-4 z"
           inkscape:connector-curvature="0"
           style="fill:#52dddc" />
        <path
           id="path985"
           d="m 83.276,55.916 a 10.313,10.313 0 0 1 -14.584,0 l -3.807,-3.807 14.583,-14.584 3.808,3.807 a 10.313,10.313 0 0 1 0,14.584 z"
           inkscape:connector-curvature="0"
           style="fill:#3b4a51" />
        <g
           id="g991"
           style="fill:#596c76">
          <path
             id="path987"
             d="m 83.276,55.916 a 10.262,10.262 0 0 1 -6.085,2.942 46.229,46.229 0 0 1 5.559,22.064 v 2.824 a 17.129,17.129 0 0 1 10,0 v -2.824 a 56.156,56.156 0 0 0 -7.406,-27.994 10.271,10.271 0 0 1 -2.068,2.988 z"
             inkscape:connector-curvature="0" />
          <path
             id="path989"
             d="m 76.415,87.313 h -48.54 a 12.75,12.75 0 0 0 12.75,12.75 h 30 a 17.062,17.062 0 0 1 5.79,-12.75 z"
             inkscape:connector-curvature="0" />
        </g>
      </g>
      <g
         id="g999">
        <path
           id="path995"
           d="m 94.5,82.519 v -1.6 A 58.262,58.262 0 0 0 87.279,52.819 12.067,12.067 0 0 0 84.513,40.1 l -2.57,-2.57 3.4,-3.4 3.437,3.44 a 1.749,1.749 0 0 0 2.475,0 l 7.778,-7.778 a 1.749,1.749 0 0 0 0,-2.475 L 72.226,0.51 a 1.749,1.749 0 0 0 -2.475,0 l -7.778,7.778 a 1.749,1.749 0 0 0 0,2.475 l 3.441,3.437 -3.6,3.6 a 1.75,1.75 0 0 0 2.475,2.474 l 3.6,-3.6 3.182,3.182 -20.928,20.933 a 1.749,1.749 0 0 0 0,2.475 l 6.136,6.136 a 1.749,1.749 0 0 0 2.475,0 l 20.928,-20.928 3.182,3.182 -4.628,4.629 H 78.23 L 63.646,50.871 v 0.006 L 57.517,57 54.006,53.489 46.052,45.534 H 46.046 L 42.541,42.028 47.064,37.5 A 1.75,1.75 0 0 0 44.59,35.025 l -5.761,5.762 a 1.749,1.749 0 0 0 0,2.475 l 3.51,3.51 -6.539,6.543 a 5.755,5.755 0 0 0 0,8.131 l 2.3,2.3 a 5.754,5.754 0 0 0 8.131,0 l 6.538,-6.546 3.51,3.511 a 1.749,1.749 0 0 0 2.475,0 l 6.13,-6.13 2.57,2.569 a 12.023,12.023 0 0 0 8.529,3.528 c 0.054,0 0.108,-0.007 0.162,-0.008 A 44.193,44.193 0 0 1 81,80.922 v 1.6 a 18.876,18.876 0 0 0 -5.245,3.044 h -47.88 a 1.749,1.749 0 0 0 -1.75,1.75 14.517,14.517 0 0 0 14.5,14.5 h 28.25 v 8.559 h -45.75 a 1.749,1.749 0 0 0 -1.75,1.75 v 14.131 a 1.749,1.749 0 0 0 1.75,1.75 h 81.75 a 1.749,1.749 0 0 0 1.75,-1.75 V 100.125 A 18.892,18.892 0 0 0 94.5,82.519 Z M 57.517,45.688 53.854,42.026 73.545,22.335 77.207,26 Z m 23.4,-20.928 -6.136,-6.137 -5.652,-5.652 -3.444,-3.446 5.3,-5.3 24.336,24.33 -5.3,5.3 -3.442,-3.441 z M 43.754,61.27 a 2.254,2.254 0 0 1 -3.183,0 l -2.3,-2.3 a 2.254,2.254 0 0 1 0,-3.183 l 6.541,-6.541 5.48,5.48 z M 67.354,52.109 79.468,40 l 2.57,2.57 A 8.563,8.563 0 0 1 69.929,54.68 Z m 12.4,7.959 a 11.975,11.975 0 0 0 4.758,-2.915 c 0.246,-0.246 0.471,-0.5 0.692,-0.766 A 54.815,54.815 0 0 1 91,80.922 v 0.628 a 17.754,17.754 0 0 0 -6.5,0 V 80.922 A 47.642,47.642 0 0 0 79.755,60.068 Z m -49.991,29 H 72.49 a 18.739,18.739 0 0 0 -3.523,9.25 H 40.625 A 11.017,11.017 0 0 1 29.764,89.063 Z m 42.611,11.062 a 15.375,15.375 0 0 1 30.75,0 v 10.247 h -6.5 v -10.252 a 1.75,1.75 0 0 0 -3.5,0 v 10.247 H 82.375 v -10.247 a 5.381,5.381 0 0 1 5.375,-5.375 1.75,1.75 0 0 0 0,-3.5 8.885,8.885 0 0 0 -8.875,8.875 v 10.247 h -6.5 z m 30.75,24.378 H 24.875 v -10.636 h 78.25 z"
           inkscape:connector-curvature="0" />
        <path
           id="path997"
           d="m 52.975,30.868 a 1.743,1.743 0 0 0 1.237,-0.513 l 2.931,-2.931 a 1.7500893,1.7500893 0 1 0 -2.475,-2.475 l -2.931,2.932 a 1.75,1.75 0 0 0 1.238,2.987 z"
           inkscape:connector-curvature="0" />
      </g>
    </g>
  </g>
</svg>
